<svg width="26" height="31" viewBox="0 0 26 31" fill="none" xmlns="http://www.w3.org/2000/svg">
<path d="M13.5292 30.9072C9.6006 30.9072 6.35778 29.4624 3.80071 26.5728C1.26693 23.6563 0 19.9704 0 15.5144C0 11.0046 1.31342 7.29139 3.94021 4.37481C6.56701 1.45829 9.82142 0 13.7035 0C15.7258 0 17.6436 0.432066 19.4567 1.29625C21.2699 2.13339 22.7813 3.25411 23.99 4.65838L20.2936 9.51927C18.4342 7.46692 16.2255 6.4407 13.6686 6.4407C11.4138 6.4407 9.55412 7.30488 8.08961 9.03319C6.62513 10.7345 5.89286 12.8679 5.89286 15.4334C5.89286 17.9717 6.61349 20.1186 8.05476 21.8739C9.49599 23.6293 11.3557 24.5069 13.6338 24.5069C14.8658 24.5069 16.0515 24.2504 17.1905 23.7377C18.3526 23.1975 19.3059 22.5088 20.0498 21.6718V13.438H25.2799V25.0741C21.9327 28.963 18.0156 30.9072 13.5292 30.9072Z" fill="#FFBA00"/>
</svg>
